<?xml version="1.0" encoding="utf-8"?>
<!-- Generator: Adobe Illustrator 25.3.1, SVG Export Plug-In . SVG Version: 6.00 Build 0)  -->
<svg version="1.1" id="Layer_1" xmlns="http://www.w3.org/2000/svg" xmlns:xlink="http://www.w3.org/1999/xlink" x="0px" y="0px"
	 viewBox="0 0 104 104" style="enable-background:new 0 0 104 104;" xml:space="preserve">
<style type="text/css">
	.st0{fill:none;}
	.st1{fill:#FFFFFF;}
	.st2{fill:url(#SVGID_1_);}
	.st3{fill:url(#SVGID_2_);}
	.st4{fill:url(#SVGID_3_);}
	.st5{fill:url(#SVGID_4_);}
	.st6{fill:url(#SVGID_5_);}
	.st7{fill:url(#SVGID_6_);}
	.st8{fill:url(#SVGID_7_);}
	.st9{fill:url(#SVGID_8_);}
	.st10{fill:url(#SVGID_9_);}
</style>
<g>
	<path class="st0" d="M65.9,39l-6.8,6.8c1.3,1.5,2.1,3.4,2.3,5.5H72L65.9,39z"/>
	<polygon class="st0" points="30.9,50.5 37.2,38.1 30.7,31.7 24.6,37.8 	"/>
	<path class="st0" d="M42.7,51.3c0.1-2.1,0.9-3.9,2.2-5.4l-6.8-6.8L32,51.3H42.7z"/>
	<path class="st0" d="M45,58.1c-1.3-1.5-2.1-3.4-2.3-5.5H32l6.2,12.3L45,58.1z"/>
	<path class="st0" d="M47.3,17.9c-0.6-0.3-1.1-0.7-1.6-1.2l-14,14l6.1,6.1L47.3,17.9z"/>
	<polygon class="st0" points="73.3,31.7 66.9,38 73.1,50.5 79.5,37.9 	"/>
	<path class="st0" d="M56.8,17.9l9.4,18.9l6.1-6.1l-14-14C57.9,17.2,57.4,17.5,56.8,17.9z"/>
	<path class="st0" d="M61.4,52.6c-0.1,2.1-1,4-2.3,5.5l6.8,6.8l6.2-12.4H61.4z"/>
	<path class="st0" d="M59,87.9c1.4,1.5,2.3,3.5,2.5,5.7h23.4c0.1-2.1,1-4,2.3-5.5L72.9,73.9L59,87.9z"/>
	<path class="st0" d="M45.9,44.9c1.7-1.5,3.8-2.4,6.2-2.4c2.3,0,4.5,0.9,6.1,2.3l7.1-7.1l-9.6-19.3c-1.1,0.5-2.3,0.7-3.6,0.7
		c-1.3,0-2.5-0.3-3.6-0.7l-9.7,19.4L45.9,44.9z"/>
	<path class="st0" d="M45.1,87.9L31.1,73.9L16.9,88.1c1.3,1.5,2.1,3.4,2.3,5.5h23.6C42.9,91.4,43.7,89.4,45.1,87.9z"/>
	<path class="st0" d="M44.8,15.7c-1.2-1.5-1.9-3.3-2.1-5.3H19.1c-0.1,2.1-1,4-2.3,5.5l13.9,13.9L44.8,15.7z"/>
	<path class="st0" d="M58.1,59.1c-1.6,1.4-3.8,2.2-6.1,2.2c-2.3,0-4.5-0.9-6.1-2.3l-7.2,7.2l9.7,19.4c1.1-0.5,2.3-0.7,3.6-0.7
		c1.3,0,2.5,0.3,3.6,0.7l9.6-19.3L58.1,59.1z"/>
	<path class="st0" d="M59.3,15.8l14,14l13.9-13.9c-1.3-1.5-2.1-3.4-2.3-5.5H61.4C61.3,12.5,60.5,14.3,59.3,15.8z"/>
	<path class="st0" d="M74.2,30.7l5.9,5.9l9.4-18.7c-0.5-0.3-0.9-0.6-1.4-1L74.2,30.7z"/>
	<path class="st0" d="M19.1,52.6c-0.1,2-0.9,3.9-2.2,5.4l6.8,6.8l6.1-12.2H19.1z"/>
	<polygon class="st0" points="31.1,72 37.2,65.9 30.9,53.5 24.8,65.8 	"/>
	<path class="st0" d="M15.9,16.9c-0.4,0.4-0.9,0.7-1.4,1L24,36.6l5.8-5.8L15.9,16.9z"/>
	<path class="st0" d="M30.1,72.9l-6-6l-9.6,19.1c0.5,0.3,0.9,0.6,1.4,1L30.1,72.9z"/>
	<path class="st0" d="M88.1,87.1c0.4-0.4,0.9-0.7,1.4-1L79.9,67l-6,6L88.1,87.1z"/>
	<path class="st0" d="M19.1,51.3h10.7l-6.2-12.5l-6.8,6.8C18.1,47.2,19,49.1,19.1,51.3z"/>
	<polygon class="st0" points="73.1,53.5 66.9,66 72.9,72 79.2,65.7 	"/>
	<path class="st0" d="M56.8,86.1c0.4,0.2,0.8,0.5,1.2,0.8l14-14l-5.7-5.7L56.8,86.1z"/>
	<path class="st0" d="M84.9,52.6H74.2l6.1,12.1l6.8-6.8C85.8,56.5,85,54.6,84.9,52.6z"/>
	<path class="st0" d="M84.9,51.3c0.2-2.2,1-4.1,2.4-5.6l-6.8-6.8l-6.2,12.4H84.9z"/>
	<path class="st0" d="M47.3,86.1l-9.5-19L32,72.9L46.1,87C46.4,86.7,46.9,86.4,47.3,86.1z"/>
	<path class="st1" d="M87.9,58.9c1.7,1.5,3.9,2.4,6.3,2.4c5.2,0,9.4-4.2,9.4-9.4c0-5.2-4.2-9.4-9.4-9.4c-2.3,0-4.4,0.8-6,2.2
		l-7.1-7.1l9.6-19.1c1.1,0.5,2.3,0.7,3.6,0.7c5.2,0,9.4-4.2,9.4-9.4s-4.2-9.4-9.4-9.4c-4.9,0-9,3.9-9.3,8.7H61.4
		c-0.3-4.9-4.4-8.7-9.3-8.7s-9,3.9-9.3,8.7H19.1c-0.3-4.9-4.4-8.7-9.3-8.7c-5.2,0-9.4,4.2-9.4,9.4s4.2,9.4,9.4,9.4
		c1.3,0,2.5-0.3,3.6-0.7L23,37.6l-7.2,7.2c-1.6-1.4-3.7-2.2-6-2.2c-5.2,0-9.4,4.2-9.4,9.4c0,5.2,4.2,9.4,9.4,9.4
		c2.4,0,4.6-0.9,6.3-2.4l7.1,7.1l-9.8,19.5c-1.1-0.5-2.3-0.7-3.6-0.7c-5.2,0-9.4,4.2-9.4,9.4c0,5.2,4.2,9.4,9.4,9.4
		c4.9,0,9-3.9,9.3-8.7h23.6c0.3,4.9,4.4,8.7,9.3,8.7s9-3.9,9.3-8.7h23.4c0.3,4.9,4.4,8.7,9.3,8.7c5.2,0,9.4-4.2,9.4-9.4
		c0-5.2-4.2-9.4-9.4-9.4c-1.3,0-2.5,0.3-3.6,0.7L80.8,66L87.9,58.9z M102.3,94.2c0,4.4-3.6,8.1-8.1,8.1c-4.4,0-8.1-3.6-8.1-8.1
		c0-4.4,3.6-8.1,8.1-8.1C98.6,86.1,102.3,89.8,102.3,94.2z M84.9,93.5H61.4c-0.2-2.2-1.1-4.2-2.5-5.7l14-14l14.2,14.2
		C85.8,89.5,85,91.4,84.9,93.5z M60.1,94.2c0,4.4-3.6,8.1-8.1,8.1S44,98.6,44,94.2c0-4.4,3.6-8.1,8.1-8.1S60.1,89.8,60.1,94.2z
		 M17.9,94.2c0,4.4-3.6,8.1-8.1,8.1c-4.4,0-8.1-3.6-8.1-8.1c0-4.4,3.6-8.1,8.1-8.1C14.2,86.1,17.9,89.8,17.9,94.2z M16.9,88.1
		l14.2-14.2l14.1,14.1c-1.4,1.5-2.2,3.5-2.4,5.6H19.1C19,91.4,18.2,89.5,16.9,88.1z M17.9,9.8c0,4.4-3.6,8.1-8.1,8.1
		c-4.4,0-8.1-3.6-8.1-8.1s3.6-8.1,8.1-8.1C14.2,1.7,17.9,5.4,17.9,9.8z M19.1,10.5h23.6c0.1,2,0.9,3.8,2.1,5.3L30.7,29.8L16.9,15.9
		C18.2,14.5,19,12.6,19.1,10.5z M44,9.8c0-4.4,3.6-8.1,8.1-8.1s8.1,3.6,8.1,8.1s-3.6,8.1-8.1,8.1S44,14.2,44,9.8z M86.1,9.8
		c0-4.4,3.6-8.1,8.1-8.1c4.4,0,8.1,3.6,8.1,8.1s-3.6,8.1-8.1,8.1C89.8,17.9,86.1,14.2,86.1,9.8z M87.1,15.9L73.3,29.8l-14-14
		c1.2-1.5,2-3.3,2.1-5.3h23.4C85,12.6,85.8,14.5,87.1,15.9z M52.1,84.8c-1.3,0-2.5,0.3-3.6,0.7l-9.7-19.4l7.2-7.2
		c1.6,1.4,3.8,2.3,6.1,2.3c2.3,0,4.4-0.8,6.1-2.2l7.2,7.2l-9.6,19.3C54.5,85.1,53.3,84.8,52.1,84.8z M52.1,19.2
		c1.3,0,2.5-0.3,3.6-0.7l9.6,19.3l-7.1,7.1c-1.6-1.4-3.8-2.3-6.1-2.3c-2.4,0-4.6,0.9-6.2,2.4l-7.1-7.1l9.7-19.4
		C49.6,18.9,50.8,19.2,52.1,19.2z M61.4,51.3c-0.1-2.1-1-4-2.3-5.5l6.8-6.8L72,51.3H61.4z M60.1,51.9c0,4.4-3.6,8.1-8.1,8.1
		S44,56.4,44,51.9c0-4.4,3.6-8.1,8.1-8.1S60.1,47.5,60.1,51.9z M44.9,45.9c-1.3,1.5-2.1,3.4-2.2,5.4H32l6.1-12.2L44.9,45.9z
		 M42.7,52.6c0.1,2.1,1,4,2.3,5.5l-6.8,6.8L32,52.6H42.7z M59.1,58.1c1.3-1.5,2.2-3.4,2.3-5.5h10.7L65.9,65L59.1,58.1z M66.9,38
		l6.4-6.4l6.2,6.2l-6.3,12.7L66.9,38z M66.3,36.8l-9.4-18.9c0.5-0.3,1-0.7,1.5-1.1l14,14L66.3,36.8z M45.7,16.7
		c0.5,0.4,1,0.8,1.6,1.2l-9.5,19l-6.1-6.1L45.7,16.7z M37.2,38.1l-6.2,12.4l-6.4-12.7l6.2-6.2L37.2,38.1z M37.2,65.9L31.1,72
		l-6.3-6.3l6.1-12.3L37.2,65.9z M37.8,67.2l9.5,19c-0.4,0.3-0.9,0.5-1.2,0.9L32,72.9L37.8,67.2z M58,86.9c-0.4-0.3-0.8-0.6-1.2-0.8
		l9.4-18.9l5.7,5.7L58,86.9z M66.9,66l6.2-12.5l6.1,12.2L72.9,72L66.9,66z M74.2,52.6h10.7c0.1,2,0.9,3.9,2.2,5.3l-6.8,6.8
		L74.2,52.6z M102.3,51.9c0,4.4-3.6,8.1-8.1,8.1c-4.4,0-8.1-3.6-8.1-8.1c0-4.4,3.6-8.1,8.1-8.1C98.6,43.9,102.3,47.5,102.3,51.9z
		 M87.2,45.7c-1.4,1.5-2.2,3.5-2.4,5.6H74.2l6.2-12.4L87.2,45.7z M80.1,36.6l-5.9-5.9l13.9-13.9c0.4,0.4,0.9,0.7,1.4,1L80.1,36.6z
		 M14.6,17.9c0.5-0.3,0.9-0.6,1.4-1l13.9,13.9L24,36.6L14.6,17.9z M29.8,51.3H19.1c-0.2-2.2-1-4.1-2.4-5.6l6.8-6.8L29.8,51.3z
		 M9.8,60c-4.4,0-8.1-3.6-8.1-8.1c0-4.4,3.6-8.1,8.1-8.1c4.4,0,8.1,3.6,8.1,8.1C17.9,56.4,14.2,60,9.8,60z M17,57.9
		c1.2-1.5,2-3.3,2.2-5.4h10.8l-6.1,12.2L17,57.9z M24.2,67l6,6L15.9,87.1c-0.4-0.4-0.9-0.7-1.4-1L24.2,67z M89.4,86.1
		c-0.5,0.3-0.9,0.6-1.4,1L73.9,72.9l6-6L89.4,86.1z"/>
	<linearGradient id="SVGID_1_" gradientUnits="userSpaceOnUse" x1="45.8079" y1="9.8052" x2="58.325" y2="9.8052">
		<stop  offset="0" style="stop-color:#E2884B"/>
		<stop  offset="1" style="stop-color:#DB455B"/>
	</linearGradient>
	<circle class="st2" cx="52.1" cy="9.8" r="6.3"/>
	<linearGradient id="SVGID_2_" gradientUnits="userSpaceOnUse" x1="87.9363" y1="9.8052" x2="100.4534" y2="9.8052">
		<stop  offset="0" style="stop-color:#E2884B"/>
		<stop  offset="1" style="stop-color:#DB455B"/>
	</linearGradient>
	<path class="st3" d="M94.2,16.1c3.5,0,6.3-2.8,6.3-6.3s-2.8-6.3-6.3-6.3c-3.5,0-6.3,2.8-6.3,6.3S90.7,16.1,94.2,16.1z"/>
	<linearGradient id="SVGID_3_" gradientUnits="userSpaceOnUse" x1="3.5466" y1="9.8052" x2="16.0637" y2="9.8052">
		<stop  offset="0" style="stop-color:#E2884B"/>
		<stop  offset="1" style="stop-color:#DB455B"/>
	</linearGradient>
	<path class="st4" d="M3.5,9.8c0,3.5,2.8,6.3,6.3,6.3c3.5,0,6.3-2.8,6.3-6.3s-2.8-6.3-6.3-6.3C6.4,3.5,3.5,6.4,3.5,9.8z"/>
	<linearGradient id="SVGID_4_" gradientUnits="userSpaceOnUse" x1="45.8079" y1="51.9341" x2="58.325" y2="51.9341">
		<stop  offset="0" style="stop-color:#E2884B"/>
		<stop  offset="1" style="stop-color:#DB455B"/>
	</linearGradient>
	<path class="st5" d="M52.1,45.7c-3.5,0-6.3,2.8-6.3,6.3c0,3.5,2.8,6.3,6.3,6.3s6.3-2.8,6.3-6.3C58.3,48.5,55.5,45.7,52.1,45.7z"/>
	<linearGradient id="SVGID_5_" gradientUnits="userSpaceOnUse" x1="87.9363" y1="51.9341" x2="100.4534" y2="51.9341">
		<stop  offset="0" style="stop-color:#E2884B"/>
		<stop  offset="1" style="stop-color:#DB455B"/>
	</linearGradient>
	<path class="st6" d="M87.9,51.9c0,3.5,2.8,6.3,6.3,6.3c3.5,0,6.3-2.8,6.3-6.3c0-3.5-2.8-6.3-6.3-6.3C90.7,45.7,87.9,48.5,87.9,51.9
		z"/>
	<linearGradient id="SVGID_6_" gradientUnits="userSpaceOnUse" x1="3.5466" y1="51.9341" x2="16.0637" y2="51.9341">
		<stop  offset="0" style="stop-color:#E2884B"/>
		<stop  offset="1" style="stop-color:#DB455B"/>
	</linearGradient>
	<path class="st7" d="M16.1,51.9c0-3.5-2.8-6.3-6.3-6.3c-3.5,0-6.3,2.8-6.3,6.3c0,3.5,2.8,6.3,6.3,6.3
		C13.3,58.2,16.1,55.4,16.1,51.9z"/>
	<linearGradient id="SVGID_7_" gradientUnits="userSpaceOnUse" x1="45.8079" y1="94.1948" x2="58.325" y2="94.1948">
		<stop  offset="0" style="stop-color:#E2884B"/>
		<stop  offset="1" style="stop-color:#DB455B"/>
	</linearGradient>
	<path class="st8" d="M52.1,87.9c-3.5,0-6.3,2.8-6.3,6.3c0,3.5,2.8,6.3,6.3,6.3s6.3-2.8,6.3-6.3C58.3,90.7,55.5,87.9,52.1,87.9z"/>
	<linearGradient id="SVGID_8_" gradientUnits="userSpaceOnUse" x1="87.9363" y1="94.1948" x2="100.4534" y2="94.1948">
		<stop  offset="0" style="stop-color:#E2884B"/>
		<stop  offset="1" style="stop-color:#DB455B"/>
	</linearGradient>
	<path class="st9" d="M87.9,94.2c0,3.5,2.8,6.3,6.3,6.3c3.5,0,6.3-2.8,6.3-6.3c0-3.5-2.8-6.3-6.3-6.3C90.7,87.9,87.9,90.7,87.9,94.2
		z"/>
	<linearGradient id="SVGID_9_" gradientUnits="userSpaceOnUse" x1="3.5466" y1="94.1948" x2="16.0637" y2="94.1948">
		<stop  offset="0" style="stop-color:#E2884B"/>
		<stop  offset="1" style="stop-color:#DB455B"/>
	</linearGradient>
	<path class="st10" d="M9.8,87.9c-3.5,0-6.3,2.8-6.3,6.3c0,3.5,2.8,6.3,6.3,6.3c3.5,0,6.3-2.8,6.3-6.3C16.1,90.7,13.3,87.9,9.8,87.9
		z"/>
</g>
</svg>